<svg width="135.385" height="152.257" viewBox="0 0 84.615 98.967" xmlns="http://www.w3.org/2000/svg"><path style="fill:#ffd632;stroke:#705f2e;stroke-width:3;stroke-linejoin:bevel" d="m14.867 9.484 55-8v25l-55 1z"/><path style="fill:#ffd632;stroke:#705f2e;stroke-width:3;stroke-linejoin:bevel" d="m26.867 19.484 58-7v76l-58 7z"/><path style="fill:#5b4335;stroke:#2e241f;stroke-width:3;stroke-linejoin:bevel" d="M26.867 19.484v76l-13 2-14-9v-77l15-2-15 2 14 10z"/><path style="fill:none;stroke:#836959;stroke-width:3" d="M13.867 22.484v74"/><path style="fill:none;stroke:#2e241f;stroke-width:3;stroke-linejoin:bevel" d="M26.867 19.484v76l-13 2-14-9v-77l15-2-15 2 14 10z"/><path style="fill:#fffae5" d="m2.867 12.484 67-10s-2 5 2 7 9 2 9 2l-67 9z"/><path d="m74.57 43.411-1.737.2v-1.738c0-.958-.78-1.648-1.738-1.538l-3.475.4c-.958.11-1.737.978-1.737 1.936v1.738l-6.95.798v-6.95l1.737-.2c.959-.11 1.738-.978 1.738-1.936v-3.475c0-.958-.78-1.648-1.738-1.538l-1.737.2V29.57c0-.958-.78-1.648-1.737-1.538l-3.475.4c-.959.11-1.738.978-1.738 1.936v1.738l-1.737.2c-.959.11-1.738.978-1.738 1.936v3.475c0 .958.78 1.648 1.738 1.538l1.737-.2v6.95l-6.95.799v-1.738c0-.958-.779-1.648-1.737-1.538l-3.475.4c-.958.11-1.738.978-1.738 1.936v1.738l-1.737.2c-.958.11-1.738.978-1.738 1.936v3.475c0 .958.78 1.648 1.738 1.538l1.737-.2v1.738c0 .958.78 1.648 1.738 1.538l3.475-.4c.958-.11 1.737-.978 1.737-1.936v-1.738l6.95-.798V70.33l-1.737.2c-.959.11-1.738.978-1.738 1.936v3.475c0 .958.78 1.648 1.738 1.538l1.737-.2v1.738c0 .958.78 1.648 1.738 1.538l3.475-.399c.958-.11 1.737-.979 1.737-1.937v-1.738l1.737-.2c.959-.11 1.738-.978 1.738-1.936V70.87c0-.958-.78-1.648-1.738-1.538l-1.737.2V52.157l7.819-.898c.479-.055.868-.489.868-.969a.76.76 0 0 0-.868-.768l-8.688.997c-.48.056-.868.49-.868.969V70.6c0 .48.389.824.868.769l2.606-.3v3.475l-2.606.3a1 1 0 0 0-.868.968v2.606l-3.475.4V76.21a.76.76 0 0 0-.87-.769l-2.605.3v-3.475l2.606-.3a1 1 0 0 0 .869-.968V51.887a.76.76 0 0 0-.87-.77l-8.686.999a1 1 0 0 0-.869.968v2.606l-3.475.4v-2.607a.76.76 0 0 0-.869-.769l-2.606.3v-3.475l2.606-.3a1 1 0 0 0 .869-.968v-2.606l3.475-.4v2.607c0 .48.389.824.868.769l8.688-.998c.48-.055.868-.489.869-.968v-8.688a.76.76 0 0 0-.87-.769l-2.605.3v-3.475l2.606-.3a1 1 0 0 0 .869-.968v-2.606l3.474-.4v2.607c0 .48.39.824.87.769l2.605-.3v3.475l-2.606.3a1 1 0 0 0-.869.968v8.687c0 .48.39.824.87.77l8.686-.998c.48-.056.869-.49.87-.969v-2.606l3.474-.4v2.607c0 .48.39.824.869.769l2.606-.3v3.475l-2.606.3a1 1 0 0 0-.869.968v2.607l-3.475.4s.407-.048 0-.001V50.29c-.046-.168-1.582-.154-1.737.016-.172.189 0 2.575 0 2.79 0 .82.779 1.648 1.737 1.538l3.475-.399c.958-.11 1.738-.979 1.738-1.937v-1.737l1.737-.2c.958-.11 1.738-.979 1.738-1.937v-3.475c0-.958-.78-1.648-1.738-1.538" style="stroke-width:.101804"/><path d="M70.253 47.382a.82.92 43.357 0 0-.87-.769l-.008.001a1 1 0 0 0-.864.968c0 .48.392.824.873.768a.82.92 43.357 0 0 .869-.968m-28.677 2.425a1 1 0 0 0-.865.968c0 .48.393.823.873.768a1 1 0 0 0 .869-.968.82.92 43.357 0 0-.869-.77zm13.908 22.727h-.009a1 1 0 0 0-.864.969c0 .48.393.823.873.768s.869-.489.869-.968a.76.76 0 0 0-.869-.77m0-38.223h-.009a1 1 0 0 0-.864.969c0 .48.393.823.873.768s.869-.489.869-.968a.76.76 0 0 0-.869-.77" style="stroke-width:.101804"/></svg>
